<svg data-v-0dd9719b="" version="1.0" xmlns="http://www.w3.org/2000/svg" xmlns:xlink="http://www.w3.org/1999/xlink" width="100%" height="100%" viewBox="0 0 340.000000 250.000000" preserveAspectRatio="xMidYMid meet" color-interpolation-filters="sRGB" style="margin: auto;"> <rect data-v-0dd9719b="" x="0" y="0" width="100%" height="100%" fill="#ffffff" fill-opacity="1" class="background"></rect> <rect data-v-0dd9719b="" x="0" y="0" width="100%" height="100%" fill="url(#watermark)" fill-opacity="1" class="watermarklayer"></rect> <g data-v-0dd9719b="" fill="#234975" class="icon-text-wrapper icon-svg-group iconsvg" transform="translate(48.57000732421875,88.09781646728516)"><g class="iconsvg-imagesvg" transform="translate(0,0)"><g><rect fill="#234975" fill-opacity="0" stroke-width="2" x="0" y="0" width="59.99999999999999" height="73.80436921865774" class="image-rect"></rect> <svg filter="url(#colors7502112767)" x="0" y="0" width="59.99999999999999" height="73.80436921865774" filtersec="colorsf9725399429" class="image-svg-svg primary" style="overflow: visible;"><svg xmlns="http://www.w3.org/2000/svg" viewBox="-0.0006665191613137722 0 28.510665893554688 35.06999969482422"><g><g fill="#000000"><path d="M3.82 10.34a2 2 0 0 0-1.74-1A2 2 0 0 0 0 11.39v23.68h8.84V18.9l-3.57-6.09-1.44-2.45zM19.68 0v16.19l5 8.56a2 2 0 0 0 1.75 1 2.56 2.56 0 0 0 .39 0h.08a1.67 1.67 0 0 0 .3-.08 2 2 0 0 0 .63-.39l.14-.15.13-.13c0-.07.09-.14.13-.22a.57.57 0 0 0 .08-.13 1.69 1.69 0 0 0 .1-.27.88.88 0 0 1 .05-.15 2.57 2.57 0 0 0 .05-.5V0z"></path><path d="M28.51 35.07v-8.82a3.39 3.39 0 0 1-2.08.72 3.16 3.16 0 0 1-2.78-1.61l-5.52-9.43-1.27-2.18v-.05L8.81 0H0v8.85a3.41 3.41 0 0 1 2.08-.72 3.16 3.16 0 0 1 2.77 1.59l8 13.7 6.85 11.65z"></path></g></g></svg></svg> <defs><filter id="colors7502112767"><feColorMatrix type="matrix" values="0 0 0 0 0.13671875  0 0 0 0 0.28515625  0 0 0 0 0.45703125  0 0 0 1 0" class="icon-fecolormatrix"></feColorMatrix></filter> <filter id="colorsf9725399429"><feColorMatrix type="matrix" values="0 0 0 0 0.99609375  0 0 0 0 0.99609375  0 0 0 0 0.99609375  0 0 0 1 0" class="icon-fecolormatrix"></feColorMatrix></filter> <filter id="colorsb366214744"><feColorMatrix type="matrix" values="0 0 0 0 0  0 0 0 0 0  0 0 0 0 0  0 0 0 1 0" class="icon-fecolormatrix"></feColorMatrix></filter></defs></g></g> <g transform="translate(67,8.970935821533203)"><g data-gra="path-name" fill-rule="" class="tp-name iconsvg-namesvg" transform="translate(0,0)"><g transform="scale(1)"><g><path d="M9.45-22.32Q9.45-22.05 9.25-21.85 9.04-21.64 8.78-21.64L8.78-21.64 4.5-21.64 4.5-30.51 22.14-30.51Q20.65-33.03 17.86-36.09L17.86-36.09 22.81-36.09Q23.89-34.65 24.57-33.44 25.24-32.22 25.96-30.51L25.96-30.51 40.5-30.51 40.5-22.32Q40.5-22.05 40.3-21.85 40.09-21.64 39.82-21.64L39.82-21.64 35.55-21.64 35.55-27.58 9.45-27.58 9.45-22.32ZM2.07-18.45L42.61-18.45 42.61-16.2Q42.61-15.93 42.41-15.73 42.21-15.52 41.94-15.52L41.94-15.52 25.52-15.52 25.52-1.03Q25.52 3.69 20.79 3.69L20.79 3.69 12.24 3.69 12.24 0.77 18.99 0.77Q20.56 0.77 20.56-0.81L20.56-0.81 20.56-15.52 2.07-15.52 2.07-18.45ZM87.93 1.71L87.93 4.63Q80.1 2.29 74.52-2.21L74.52-2.21Q71.41 0.14 67.95 1.87 64.48 3.6 60.93 4.54L60.93 4.54 60.93 1.62Q63.09 0.72 65.9-1.03 68.72-2.79 71.41-5.08L71.41-5.08Q67.59-9.22 65.43-14.4L65.43-14.4 70.38-14.4Q71.95-11.07 74.52-8.01L74.52-8.01Q78.21-11.88 80.06-16.02L80.06-16.02 64.8-16.02Q64.71-9.86 63.47-5.92 62.23-1.98 60.23 0.34 58.23 2.65 55.17 4.59L55.17 4.59 55.17 1.21Q57.73-1.57 58.79-5.74 59.85-9.9 59.85-16.92L59.85-16.92 59.85-30.73 71.1-30.73 71.1-36.23 76.05-36.23 76.05-30.73 87.16-30.73 87.16-27.81Q86.94-26.64 86.02-24.77 85.09-22.9 84.33-21.64L84.33-21.64 81.41-21.64Q81.59-22.36 81.92-24.34 82.26-26.32 82.35-27.81L82.35-27.81 76.05-27.81 76.05-18.95 85.59-18.95 85.59-16.02Q84.51-13.09 82.46-10.24 80.41-7.38 77.63-4.81L77.63-4.81Q82.22-0.67 87.93 1.71L87.93 1.71ZM55.08-25.92Q54.49-27.09 52.54-29.72 50.58-32.35 48.42-34.42L48.42-34.42 54.27-34.42Q55.53-33.07 56.45-31.34 57.38-29.61 58.37-27.22L58.37-27.22Q58.68-26.41 58.91-25.92L58.91-25.92 55.08-25.92ZM71.1-27.81L64.8-27.81 64.8-18.95 71.1-18.95 71.1-27.81ZM57.55-16.2L53.73-16.2Q53.14-17.37 51.19-20 49.23-22.63 47.07-24.7L47.07-24.7 52.92-24.7Q54.18-23.36 55.1-21.62 56.02-19.89 57.02-17.5L57.02-17.5Q57.33-16.7 57.55-16.2L57.55-16.2ZM54.67-13.05L58.14-13.05 52.92 3.51 47.52 3.51 54.13-12.73Q54.18-12.87 54.36-12.96 54.54-13.05 54.67-13.05L54.67-13.05ZM103.09-36.23Q101.7-31.23 99.25-27.77 96.8-24.3 92.43-21.78L92.43-21.78 92.43-25.15Q94.55-26.64 96.08-29.97 97.61-33.3 98.1-36.23L98.1-36.23 103.09-36.23ZM102.91-32.85L106.97-32.85 106.97-24.93 108.45-24.93 108.45-36.23 112.5-36.23 112.5-24.93Q114.08-25.06 114.08-26.73L114.08-26.73 114.08-32.85 118.13-32.85 118.13-26.55Q118.13-24.39 117.11-23.38 116.1-22.36 113.94-22.36L113.94-22.36 102.91-22.36 102.91-32.85ZM132.25-25.56L131.67-25.56Q131.63-14.4 127.48-6.79L127.48-6.79Q128.61-4.27 129.91-2.32 131.22-0.36 132.93 1.62L132.93 1.62 132.93 4.54Q128.52 2.11 125.23-3.24L125.23-3.24Q123.21-0.58 120.94 1.19 118.66 2.97 116.01 4.54L116.01 4.54 116.01 1.62Q118.13-0.32 119.79-2.18 121.45-4.05 123.12-7.29L123.12-7.29Q120.51-13.32 119.7-20.75L119.7-20.75Q118.53-19.66 117.31-18.95L117.31-18.95 117.31-17.05Q117.31-16.79 117.11-16.58 116.91-16.38 116.64-16.38L116.64-16.38 101.88-16.38 101.88-19.3 116.64-19.3 116.64-21.91Q118.39-23.8 119.88-27.61 121.36-31.41 121.81-35.77L121.81-35.77 126.77-35.77Q126.22-31.77 124.88-28.48L124.88-28.48 132.93-28.48 132.93-26.23Q132.93-25.96 132.73-25.76 132.53-25.56 132.25-25.56L132.25-25.56ZM125.41-13.09Q127.03-18.4 127.17-25.56L127.17-25.56 123.48-25.56Q122.67-24.07 121.81-23.04L121.81-23.04 124.02-23.04Q124.38-17.59 125.41-13.09L125.41-13.09ZM102.64-24.3Q102.11-20.56 100.22-17.28L100.22-17.28 100.22 3.92Q100.22 4.18 100.01 4.39 99.81 4.59 99.54 4.59L99.54 4.59 95.72 4.59 95.72-11.88Q94.32-10.62 92.07-9.22L92.07-9.22 92.07-12.6Q96.21-15.62 98.14-24.3L98.14-24.3 102.64-24.3ZM120.06-4.46Q119.43-3.19 117.74-1.35 116.06 0.49 115.25 1.08L115.25 1.08 110.3 1.08 110.3-10.44 107.91-10.44 107.91-8.14Q107.91 1.3 100.62 4.32L100.62 4.32 100.62 0.94Q102.11-0.58 102.53-2.34 102.96-4.09 102.96-6.84L102.96-6.84 102.96-8.55 102.96-13.37 115.25-13.37 115.25-3.92Q116.64-4.81 117.74-5.8 118.84-6.79 120.06-8.05L120.06-8.05 120.06-4.46ZM160.6-16.79Q161.82-12.24 165.01-8.28 168.21-4.32 171.85-1.69 175.5 0.94 177.93 1.75L177.93 1.75 177.93 4.68Q175.41 4.27 171.5 2.16 167.58 0.04 163.71-3.33 159.84-6.71 157.54-10.71L157.54-10.71Q155.34-6.71 151.63-3.35 147.91 0 144.07 2.11 140.22 4.23 137.75 4.63L137.75 4.63 137.75 1.71Q140.18 0.94 143.66-1.71 147.15-4.37 150.21-8.3 153.27-12.24 154.44-16.79L154.44-16.79 137.56-16.79 137.56-19.71 154.94-19.71Q155.03-20.88 155.03-21.42L155.03-21.42 155.03-30.15 140.4-30.15 140.4-33.07 174.69-33.07 174.69-30.82Q174.69-30.55 174.49-30.35 174.28-30.15 174.01-30.15L174.01-30.15 159.97-30.15 159.97-21.42Q159.97-20.88 160.06-19.71L160.06-19.71 177.48-19.71 177.48-17.46Q177.48-17.19 177.28-16.99 177.07-16.79 176.81-16.79L176.81-16.79 160.6-16.79Z" transform="translate(-2.069999933242798, 36.22999954223633)"></path></g> <!----> <!----> <!----> <!----> <!----> <!----> <!----></g></g> <g data-gra="path-slogan" fill-rule="" class="tp-slogan iconsvg-slogansvg" fill="#5da62d" transform="translate(38.66499328613281,46.90999984741211)"><!----> <!----> <g transform="scale(1, 1)"><g transform="scale(1)"><path d="M2.30-8.58L6.61-1.64L6.61-8.58L7.73-8.58L7.73 0L6.42 0L2.06-6.94L2.02-6.94L2.02 0L0.89 0L0.89-8.58L2.30-8.58ZM9.70-8.58L10.88-8.58L10.88 0L9.70 0L9.70-8.58ZM14.25-8.58L18.56-1.64L18.56-8.58L19.69-8.58L19.69 0L18.38 0L14.02-6.94L13.97-6.94L13.97 0L12.84 0L12.84-8.58L14.25-8.58ZM27.89-3.61L25.27-3.61L25.27-4.59L29.02-4.59L29.02 0L28.27 0L27.98-1.08Q27 0.09 25.17 0.14L25.17 0.14Q23.44 0.14 22.50-0.75L22.50-0.75Q21.09-2.06 21.14-4.36L21.14-4.36Q21.47-8.63 25.22-8.81L25.22-8.81Q28.41-8.63 28.88-6L28.88-6L27.75-6Q27.28-7.78 25.17-7.83L25.17-7.83Q22.50-7.64 22.36-4.31L22.36-4.31Q22.36-0.75 25.22-0.75L25.22-0.75Q26.25-0.75 27-1.31L27-1.31Q27.94-2.06 27.89-3.61L27.89-3.61ZM34.03-7.64L31.97-7.64L31.97-4.97L34.03-4.97Q35.86-4.92 35.81-6.38L35.81-6.38Q35.81-7.64 34.03-7.64L34.03-7.64ZM34.50 0L30.80 0L30.80-8.58L34.59-8.58Q36.89-8.48 36.98-6.42L36.98-6.42Q36.98-5.16 35.86-4.64L35.86-4.64Q37.45-4.08 37.45-2.53L37.45-2.53Q37.31-0.09 34.50 0L34.50 0ZM34.22-3.98L31.97-3.98L31.97-0.98L34.45-0.98Q36.23-1.03 36.28-2.53L36.28-2.53Q36.28-3.98 34.22-3.98L34.22-3.98ZM45.56-4.27L45.56-4.27Q45.38-7.64 42.56-7.83L42.56-7.83Q39.70-7.69 39.56-4.27L39.56-4.27Q39.70-0.94 42.56-0.80L42.56-0.80Q45.38-0.98 45.56-4.27ZM46.73-4.27L46.73-4.27Q46.45 0 42.56 0.14L42.56 0.14Q38.63 0 38.34-4.27L38.34-4.27Q38.58-8.72 42.56-8.81L42.56-8.81Q46.45-8.67 46.73-4.27ZM56.20-7.13L56.16-7.13L54.19 0L52.97 0L50.72-8.58L51.94-8.58L53.58-1.59L53.63-1.59L55.55-8.58L56.81-8.58L58.73-1.59L58.78-1.59L60.38-8.58L61.64-8.58L59.39 0L58.17 0L56.20-7.13ZM64.03-1.03L69.19-1.03L69.19 0L62.86 0L62.86-8.58L69.09-8.58L69.09-7.59L64.03-7.59L64.03-4.92L68.72-4.92L68.72-3.89L64.03-3.89L64.03-1.03ZM70.88-8.58L72.05-8.58L72.05 0L70.88 0L70.88-8.58ZM76.22-7.59L73.31-7.59L73.31-8.58L80.25-8.58L80.25-7.59L77.34-7.59L77.34 0L76.22 0L76.22-7.59ZM81.47-8.58L82.64-8.58L82.64 0L81.47 0L81.47-8.58ZM90.28 0L89.44-2.48L85.97-2.48L85.08 0L83.91 0L87.14-8.58L88.45-8.58L91.55 0L90.28 0ZM87.70-7.31L86.34-3.52L89.02-3.52L87.75-7.31L87.70-7.31ZM93.98-8.58L98.30-1.64L98.30-8.58L99.42-8.58L99.42 0L98.11 0L93.75-6.94L93.70-6.94L93.70 0L92.58 0L92.58-8.58L93.98-8.58Z" transform="translate(-0.890625, 8.8125)"></path></g></g></g></g></g><defs v-gra="od"></defs></svg>